<mxfile host="app.diagrams.net" modified="2022-08-30T06:58:59.371Z" agent="5.0 (Windows NT 10.0; Win64; x64) AppleWebKit/537.36 (KHTML, like Gecko) Chrome/104.0.0.0 Safari/537.36" etag="AK_4JoXOSD5DbLHUuJbw" version="20.2.4" type="github">
  <diagram id="XerLuX8gjZ4Qrnr397_4" name="第 1 页">
    <mxGraphModel dx="2267" dy="1690" grid="0" gridSize="10" guides="1" tooltips="1" connect="1" arrows="1" fold="1" page="0" pageScale="1" pageWidth="827" pageHeight="1169" math="0" shadow="0">
      <root>
        <mxCell id="0" />
        <mxCell id="1" parent="0" />
        <mxCell id="Btgb__d3ryDDSwUvl4Ch-6" style="edgeStyle=none;curved=1;rounded=0;orthogonalLoop=1;jettySize=auto;html=1;exitX=0.5;exitY=1;exitDx=0;exitDy=0;endArrow=open;startSize=14;endSize=14;sourcePerimeterSpacing=8;targetPerimeterSpacing=8;" edge="1" parent="1" source="Btgb__d3ryDDSwUvl4Ch-2" target="Btgb__d3ryDDSwUvl4Ch-5">
          <mxGeometry relative="1" as="geometry" />
        </mxCell>
        <mxCell id="Btgb__d3ryDDSwUvl4Ch-8" style="edgeStyle=none;curved=1;rounded=0;orthogonalLoop=1;jettySize=auto;html=1;exitX=0.5;exitY=1;exitDx=0;exitDy=0;endArrow=open;startSize=14;endSize=14;sourcePerimeterSpacing=8;targetPerimeterSpacing=8;" edge="1" parent="1" source="Btgb__d3ryDDSwUvl4Ch-2" target="Btgb__d3ryDDSwUvl4Ch-7">
          <mxGeometry relative="1" as="geometry" />
        </mxCell>
        <mxCell id="Btgb__d3ryDDSwUvl4Ch-2" value="Agora" style="rounded=0;whiteSpace=wrap;html=1;hachureGap=4;fillColor=#cce5ff;strokeColor=#36393d;" vertex="1" parent="1">
          <mxGeometry x="-799" y="-567" width="160" height="80" as="geometry" />
        </mxCell>
        <mxCell id="Btgb__d3ryDDSwUvl4Ch-10" style="edgeStyle=none;curved=1;rounded=0;orthogonalLoop=1;jettySize=auto;html=1;exitX=0.5;exitY=1;exitDx=0;exitDy=0;endArrow=open;startSize=14;endSize=14;sourcePerimeterSpacing=8;targetPerimeterSpacing=8;" edge="1" parent="1" source="Btgb__d3ryDDSwUvl4Ch-3" target="Btgb__d3ryDDSwUvl4Ch-9">
          <mxGeometry relative="1" as="geometry" />
        </mxCell>
        <mxCell id="Btgb__d3ryDDSwUvl4Ch-12" style="edgeStyle=none;curved=1;rounded=0;orthogonalLoop=1;jettySize=auto;html=1;exitX=0.5;exitY=1;exitDx=0;exitDy=0;endArrow=open;startSize=14;endSize=14;sourcePerimeterSpacing=8;targetPerimeterSpacing=8;" edge="1" parent="1" source="Btgb__d3ryDDSwUvl4Ch-3" target="Btgb__d3ryDDSwUvl4Ch-11">
          <mxGeometry relative="1" as="geometry" />
        </mxCell>
        <mxCell id="Btgb__d3ryDDSwUvl4Ch-3" value="TRTC" style="rounded=0;whiteSpace=wrap;html=1;hachureGap=4;fillColor=#ffcc99;strokeColor=#36393d;" vertex="1" parent="1">
          <mxGeometry x="-440" y="-567" width="160" height="80" as="geometry" />
        </mxCell>
        <mxCell id="Btgb__d3ryDDSwUvl4Ch-14" style="edgeStyle=none;curved=1;rounded=0;orthogonalLoop=1;jettySize=auto;html=1;exitX=0.5;exitY=1;exitDx=0;exitDy=0;endArrow=open;startSize=14;endSize=14;sourcePerimeterSpacing=8;targetPerimeterSpacing=8;" edge="1" parent="1" source="Btgb__d3ryDDSwUvl4Ch-4" target="Btgb__d3ryDDSwUvl4Ch-13">
          <mxGeometry relative="1" as="geometry" />
        </mxCell>
        <mxCell id="Btgb__d3ryDDSwUvl4Ch-4" value="Zego" style="rounded=0;whiteSpace=wrap;html=1;hachureGap=4;fillColor=#e1d5e7;strokeColor=#9673a6;" vertex="1" parent="1">
          <mxGeometry x="-116" y="-567" width="160" height="80" as="geometry" />
        </mxCell>
        <mxCell id="Btgb__d3ryDDSwUvl4Ch-5" value="Agora Client" style="rounded=0;whiteSpace=wrap;html=1;hachureGap=4;fillColor=#cce5ff;strokeColor=#36393d;" vertex="1" parent="1">
          <mxGeometry x="-887" y="-441" width="160" height="80" as="geometry" />
        </mxCell>
        <mxCell id="Btgb__d3ryDDSwUvl4Ch-7" value="Agora Track" style="rounded=0;whiteSpace=wrap;html=1;hachureGap=4;fillColor=#cce5ff;strokeColor=#36393d;" vertex="1" parent="1">
          <mxGeometry x="-705" y="-439" width="160" height="80" as="geometry" />
        </mxCell>
        <mxCell id="Btgb__d3ryDDSwUvl4Ch-9" value="TRTC Client" style="rounded=0;whiteSpace=wrap;html=1;hachureGap=4;fillColor=#ffcc99;strokeColor=#36393d;" vertex="1" parent="1">
          <mxGeometry x="-527" y="-439" width="160" height="80" as="geometry" />
        </mxCell>
        <mxCell id="Btgb__d3ryDDSwUvl4Ch-11" value="TRTC Stream" style="rounded=0;whiteSpace=wrap;html=1;hachureGap=4;fillColor=#ffcc99;strokeColor=#36393d;" vertex="1" parent="1">
          <mxGeometry x="-344" y="-439" width="160" height="80" as="geometry" />
        </mxCell>
        <mxCell id="Btgb__d3ryDDSwUvl4Ch-13" value="Zego Stream" style="rounded=0;whiteSpace=wrap;html=1;hachureGap=4;fillColor=#e1d5e7;strokeColor=#9673a6;" vertex="1" parent="1">
          <mxGeometry x="-116" y="-441" width="160" height="80" as="geometry" />
        </mxCell>
        <mxCell id="Btgb__d3ryDDSwUvl4Ch-17" value="Agora的Client与TRTC的Client作用基本一致，该类均有如何「使用」媒体流的方法，以及一些通用业务逻辑.Zego没有Client，其自身SDK基类即为Client&lt;br&gt;&lt;br&gt;三家均有媒体流概念，Zego和TRTC称为Stream，其创建方法都为createStream，并通过传参的形式控制该流的属性，如纯音频、编码参数等；Agora则通过不同的API创建不同类型的Track。" style="shape=note;whiteSpace=wrap;html=1;backgroundOutline=1;fontColor=#000000;darkOpacity=0.05;fillColor=#FFF9B2;strokeColor=none;fillStyle=solid;direction=west;gradientDirection=north;gradientColor=#FFF2A1;shadow=1;size=20;pointerEvents=1;hachureGap=4;" vertex="1" parent="1">
          <mxGeometry x="-1156" y="-521" width="240" height="160" as="geometry" />
        </mxCell>
      </root>
    </mxGraphModel>
  </diagram>
</mxfile>
